<svg xmlns="http://www.w3.org/2000/svg" viewBox="0 0 149.54 45.94" width="120" height="37">
  <path fill="#1a1a2e" d="M76.08,1.23A22.15,22.15,0,0,0,61.89,15.15a24.78,24.78,0,0,0-1.31,8,21.78,21.78,0,0,0,6,15.25l.27.29.12.13.08.08a23.62,23.62,0,0,0,24.48,5.83,21,21,0,0,0,3.8-1.63,21.14,21.14,0,0,0,10.47-12.23A24,24,0,0,0,107,23.34C107.28,8,92.34-4,76.08,1.23Z"/>
  <path fill="#1a1a2e" d="M143.62,4.05l-.14,36.53c0,4,2.14,1.34,2.71-.06a48.74,48.74,0,0,0,3.35-17.89,51.88,51.88,0,0,0-3-18.5C146,2.72,143.64-.78,143.62,4.05Z"/>
  <path fill="#1a1a2e" d="M113.68,36.63c0,5.69-8.46,6-8.46,6h21.19c1.54,0,3.79.08,4.5-.26,1.24-.6,1.25-1.57.65-2.29l-17.8-21.63c0,4.12-.05,10.06-.06,13.56C113.7,32.6,113.68,33.24,113.68,36.63Z"/>
  <path fill="#1a1a2e" d="M107.44,1.58a11.64,11.64,0,0,1,8.41,4.17c.91,1.12,15.69,19,15.69,19a1.29,1.29,0,0,0,2.28-.82l.08-18.9a3.08,3.08,0,0,0-2.46-3,19.92,19.92,0,0,0-4-.46Z"/>
  <path fill="#0ad418" d="M76.08,1.23A22.15,22.15,0,0,0,61.89,15.15a24.78,24.78,0,0,0-1.31,8,21.78,21.78,0,0,0,6,15.25l.27.29.12.13.08.08a23.62,23.62,0,0,0,24.48,5.83,21,21,0,0,0,3.8-1.63,21.14,21.14,0,0,0,10.47-12.23A24,24,0,0,0,107,23.34C107.28,8,92.34-4,76.08,1.23ZM89.85,43.7a23.55,23.55,0,0,1-7.47,1.16,21.36,21.36,0,0,1-14.79-6.39A21.71,21.71,0,0,1,62.54,15.9,20.67,20.67,0,0,1,75.73,2.81a23.65,23.65,0,0,1,7.15-1.16A21.36,21.36,0,0,1,98,8,21.74,21.74,0,0,1,103,30.62,20.68,20.68,0,0,1,89.85,43.7Z"/>
  <path fill="#1a1a2e" d="M55.48,30.08l0-3.69c0-3.65-.73-6.45-2.22-8.31a7.88,7.88,0,0,0-6.46-2.9,7.21,7.21,0,0,0-6.19,3c-1.48,2-2.21,4.76-2.22,8.41l0,5.5c0,3.37.69,6,2.1,7.77a7.68,7.68,0,0,0,6.34,2.78,7.93,7.93,0,0,0,5.93-2.18,10.25,10.25,0,0,0,2.52-6.43l0-.18-4.46,0,0,.15a6.85,6.85,0,0,1-1.16,3.37,3,3,0,0,1-2.52,1.07,3,3,0,0,1-2.84-1.6,11.15,11.15,0,0,1-.91-5.31V30Zm-4.8-5.27v1.51l-7.26,0v-.73a9.11,9.11,0,0,1,1-4.76,3.09,3.09,0,0,1,2.86-1.4,2.86,2.86,0,0,1,2.55,1.43A7.06,7.06,0,0,1,50.68,24.81Z"/>
  <path fill="#1a1a2e" d="M27.05,5.32a1.11,1.11,0,0,0,1.11-1.1V2.33a1.1,1.1,0,0,0-1.1-1.11l-9.19,0a1.11,1.11,0,0,0-1.11,1.1V4.17a1.11,1.11,0,0,0,1.1,1.11H19.5A.59.59,0,0,1,20,5.5a.57.57,0,0,1,.09.5L14.15,31.73a1.23,1.23,0,0,1,0,.16,1.23,1.23,0,0,1,0-.16L8.42,6a.62.62,0,0,1,.1-.51A.58.58,0,0,1,9,5.25h1.71a1.1,1.1,0,0,0,1.11-1.1V2.26a1.11,1.11,0,0,0-1.1-1.11l-9.61,0A1.11,1.11,0,0,0,0,2.21V4.1A1.11,1.11,0,0,0,1.1,5.21h.7A1.1,1.1,0,0,1,2.8,6L10,34.86l2,7.81h4L24.81,6.1a1.1,1.1,0,0,1,1-.79Z"/>
  <rect fill="#1a1a2e" x="28.28" y="6.92" width="4.1" height="4.77" rx="1.11" transform="translate(20.9 39.59) rotate(-89.77)"/>
  <path fill="#1a1a2e" d="M34.41,38.74h-.87a.78.78,0,0,1-.77-.78l.09-20.68a1.12,1.12,0,0,0-1.11-1.11l-5.48,0a1.11,1.11,0,0,0-1.11,1.1V19a1.1,1.1,0,0,0,1.1,1.11h.87a.77.77,0,0,1,.77.77l-.07,17.09a.77.77,0,0,1-.78.77s-2,.49-2,1.1v2.86H35.5V39.85A1.11,1.11,0,0,0,34.41,38.74Z"/>
  <circle fill="#0ad418" cx="82.58" cy="23" r="12.82"/>
</svg>
